<svg xmlns="http://www.w3.org/2000/svg" width="256" height="256"><path fill-opacity=".016" d="M0 128.004v128.004l128.25-.254 128.25-.254.254-127.75L257.008 0H0v128.004m.485.496c0 70.4.119 99.053.265 63.672.146-35.38.146-92.98 0-128C.604 29.153.485 58.1.485 128.5" fill="#1976D2" fill-rule="evenodd"/><path fill-opacity=".358" d="M106.5 1.588C59.178 9.917 19.988 44.141 5.692 89.619c-7.949 25.29-7.589 53.897.999 79.381 4.348 12.901 7.351 18.938 15.456 31.071 15.353 22.983 40.568 41.76 67.472 50.245 21.11 6.657 48.709 7.518 69.381 2.166 33.7-8.727 61.036-29.073 79.368-59.075 7.744-12.674 14.645-32.238 16.291-46.185.343-2.903 1.01-5.517 1.482-5.809.472-.292.859-6.831.859-14.531s-.356-13.78-.79-13.512c-.435.269-1.362-3.141-2.06-7.578-6.001-38.14-33.202-74.663-69.079-92.753-8.529-4.3-25.516-9.71-35.997-11.463-11.501-1.923-31.614-1.918-42.574.012M71 128v73h114V97.041l-20.75-.271-20.75-.27-.27-20.75-.271-20.75H71v73m79-53.5V90h31.476L166 74.5c-8.512-8.525-15.594-15.5-15.738-15.5-.144 0-.262 6.975-.262 15.5M.397 128c0 7.975.156 11.238.346 7.25.189-3.988.189-10.513 0-14.5-.19-3.987-.346-.725-.346 7.25m107.366-3.277l-8.723 8.722-3.93-3.837-3.929-3.838-2.559 1.865c-1.408 1.026-2.573 2.103-2.591 2.394-.017.291 2.791 3.326 6.241 6.745l6.271 6.215 11.421-11.453c11.279-11.31 11.398-11.479 9.573-13.495-1.016-1.122-2.118-2.041-2.449-2.041-.331 0-4.527 3.925-9.325 8.723M126 132.48V136H168.127l-.314-3.25-.313-3.25-20.75-.27-20.75-.271v3.521m-18.492 31.512l-8.949 8.991-4.087-4.011-4.087-4.011-2.175 2.316-2.175 2.315 6.254 6.199 6.254 6.198 11.331-11.363c11.238-11.269 11.316-11.381 9.506-13.495-1.003-1.172-2.071-2.131-2.373-2.131-.302 0-4.576 4.046-9.499 8.992m18.679 8.258l.313 3.25h41l.313-3.25.314-3.25h-42.254l.314 3.25" fill="#1976D2" fill-rule="evenodd"/><path fill-opacity=".336" d="M111.5 1.477c-10.988 1.545-12.612 1.926-24.177 5.669-41.588 13.461-73.678 48.94-83.868 92.728-7.81 33.556-.862 70.088 19.041 100.126 6.384 9.635 23.869 27.12 33.504 33.504 18.58 12.311 36.985 18.927 59.975 21.56 28.451 3.258 58.731-4.439 84.025-21.357 9.793-6.551 27.294-24.121 33.986-34.121 10.764-16.084 17.959-35.035 20.095-52.927.602-5.037 1.505-9.94 2.006-10.895 1.158-2.203 1.207-17.064.054-16.351-.472.292-1.156-2.667-1.52-6.576-1.711-18.412-9.439-39.213-21.117-56.837-6.384-9.635-23.869-27.12-33.504-33.504C182.956 11.202 164.175 4.1 144.554 1.528 130.965-.253 123.89-.264 111.5 1.477M70.679 54.654c-.373.374-.679 33.454-.679 73.513V201h116.018l-.259-52.25-.259-52.25-20.73-.27-20.73-.27-.27-20.73-.27-20.73-36.071-.262c-19.839-.145-36.377.043-36.75.416M150 74.297v16.774l16-.122c8.8-.067 16-.426 16-.797 0-.372-7.2-7.865-16-16.652l-16-15.977v16.774m-42.495 50.698l-8.946 8.988-4.098-4.021-4.097-4.021-1.877 2.074c-1.86 2.054-1.82 2.132 4.081 8.033l5.959 5.959 10.964-10.998 10.964-10.998-2.002-2.002-2.002-2.002-8.946 8.988M.349 128c0 4.675.173 6.588.383 4.25.211-2.338.211-6.163 0-8.5-.21-2.338-.383-.425-.383 4.25M126 133.02v3.021l20.75-.271 20.75-.27.316-2.75.317-2.75H126v3.02m-18.511 30.991l-8.926 8.968-3.711-3.624c-3.803-3.713-6.292-3.978-7.512-.798-.415 1.081 1.125 3.364 4.738 7.022 2.945 2.982 5.827 5.421 6.405 5.421.578 0 5.895-4.859 11.815-10.797l10.763-10.797-2.322-2.182-2.323-2.182-8.927 8.969M126 171.98V175H168.133l-.317-2.75-.316-2.75-20.75-.27-20.75-.271v3.021" fill="#1976D2" fill-rule="evenodd"/><path fill-opacity=".308" d="M144 75.545V96h42v106H71.416l27.193 27.127 27.192 27.126 8.85-.698c39.076-3.085 72.729-20.985 94.952-50.504 9.598-12.75 21.397-37.215 21.397-44.366 0-1.552-9.907-12.1-33.755-35.941L183.489 91H149V75.545c0-15.151-.049-15.503-2.5-17.954l-2.5-2.5v20.454m-36.465 49.475l-8.867 9.062-3.626-3.541c-4.035-3.94-5.197-4.264-7.095-1.977-1.113 1.341-.45 2.413 4.641 7.504l5.939 5.939 10.964-10.998 10.964-10.998-2.026-2.026-2.026-2.027-8.868 9.062M127 132.5v2.5h40v-5h-40v2.5m-19 32c-4.651 4.675-8.897 8.5-9.436 8.5-.539 0-2.605-1.587-4.592-3.527-3.47-3.389-3.678-3.456-5.27-1.697-1.566 1.731-1.343 2.142 4.094 7.522l5.75 5.69 10.9-10.933c9.381-9.411 10.719-11.151 9.604-12.495-.712-.858-1.587-1.56-1.945-1.56-.357 0-4.454 3.825-9.105 8.5m19 8v2.5h40v-5h-40v2.5" fill="#1976D2" fill-rule="evenodd"/></svg>